{"glyphs":{"0":{"ha":1274,"x_min":34,"x_max":1240,"o":"m 637 1027 q 210 871 387 1027 q 34 492 34 714 q 210 114 34 271 q 637 -43 387 -43 q 1063 114 886 -43 q 1240 492 1240 271 q 1063 871 1240 714 q 637 1027 886 1027 m 633 708 q 800 645 731 708 q 869 494 869 583 q 800 343 869 406 q 633 280 731 280 q 465 343 534 280 q 396 494 396 406 q 465 645 396 583 q 633 708 534 708 "},"1":{"ha":614,"x_min":34,"x_max":580,"o":"m 351 1044 q 34 839 34 1006 q 184 680 56 680 l 256 688 q 264 680 256 680 q 216 87 240 490 q 351 -47 216 -20 l 390 -47 q 500 16 443 -47 q 580 807 532 16 q 382 1044 580 1044 l 351 1044 "},"2":{"ha":1088,"x_min":34,"x_max":1055,"o":"m 643 1163 q 232 1013 408 1163 q 34 783 34 886 q 161 633 66 633 l 208 633 q 295 665 254 633 q 604 846 490 838 l 635 846 q 659 823 659 834 l 659 775 q 248 309 659 604 q 129 151 129 244 l 129 142 q 208 0 129 75 q 904 -47 208 -26 q 1055 79 1055 -12 l 1055 142 q 960 254 1055 212 q 730 285 909 267 q 738 309 730 294 q 975 791 975 544 q 960 918 975 844 q 643 1163 867 1163 "},"3":{"ha":1168,"x_min":34,"x_max":1134,"o":"m 675 1155 q 342 1100 505 1155 q 98 918 98 1053 l 98 902 q 256 751 98 777 q 517 823 281 751 l 524 807 l 493 775 q 311 570 311 661 l 311 522 q 461 388 311 432 q 707 404 471 388 q 802 380 774 404 l 802 356 q 493 230 726 272 q 414 245 481 230 q 193 349 243 349 q 34 206 34 327 l 34 182 l 42 135 q 485 -79 216 -79 q 770 -24 638 -79 q 1134 356 1134 132 l 1134 396 q 912 688 1134 574 l 912 696 q 999 918 999 812 q 675 1155 999 1155 "},"4":{"ha":1120,"x_min":34,"x_max":1086,"o":"m 604 1131 l 588 1131 q 342 886 526 1131 q 34 451 34 543 l 34 396 q 295 222 34 242 q 588 237 357 230 l 604 214 l 604 151 q 754 -16 617 -16 l 762 -16 q 912 151 899 -16 l 912 222 l 920 237 q 1086 380 1086 271 l 1086 420 q 1015 538 1086 475 q 912 585 912 554 q 762 751 901 751 q 619 673 673 751 q 572 546 593 546 l 500 546 l 485 554 q 493 578 485 562 q 572 680 572 668 q 770 958 770 884 l 770 989 q 604 1131 770 1115 "},"5":{"ha":985,"x_min":34,"x_max":951,"o":"m 319 1171 q 121 1107 205 1171 q 34 736 34 1028 q 66 570 34 649 q 390 459 126 459 l 485 459 q 619 420 619 454 l 619 412 q 382 317 532 317 l 232 317 q 98 174 127 317 l 98 159 l 105 111 q 342 0 151 0 q 659 56 505 0 q 951 388 951 224 l 951 467 q 920 570 951 507 q 382 775 817 775 l 374 775 q 351 799 351 788 l 351 839 l 366 863 q 683 846 445 863 q 873 1013 873 876 q 762 1163 873 1108 q 319 1171 707 1163 "},"6":{"ha":954,"x_min":34,"x_max":920,"o":"m 675 1139 q 414 1060 543 1139 q 34 435 34 823 q 50 293 34 372 q 485 -7 159 -7 l 572 -7 q 675 8 604 -7 q 920 325 920 124 l 920 356 q 675 688 920 576 q 509 736 509 720 q 651 823 536 780 q 778 815 766 815 q 912 958 881 815 l 912 981 q 904 1021 912 1008 q 690 1139 862 1139 l 675 1139 m 358 388 q 446 412 358 412 l 453 412 q 604 356 561 412 q 524 301 604 301 q 358 388 358 301 "},"7":{"ha":1065,"x_min":34,"x_max":1031,"o":"m 184 1131 q 34 981 63 1131 l 34 965 q 74 870 34 914 q 461 783 135 783 q 588 791 576 791 q 595 783 588 783 q 485 538 595 768 q 295 159 295 190 l 295 142 q 446 -7 331 -7 l 485 -7 q 825 515 585 -7 q 1031 949 1031 893 q 873 1131 999 1131 q 477 1100 574 1100 l 406 1100 q 184 1131 312 1100 "},"8":{"ha":994,"x_min":34,"x_max":960,"o":"m 556 1202 q 446 1195 513 1202 q 34 831 34 1117 l 34 823 q 153 570 34 705 q 58 317 67 442 q 81 190 66 230 q 461 -55 194 -55 q 683 -7 634 -39 q 888 254 888 94 q 762 562 888 401 l 762 570 q 960 863 960 743 l 960 926 q 951 965 960 952 q 556 1202 867 1202 m 463 893 q 502 898 483 898 q 551 889 528 898 q 597 840 590 873 q 600 825 600 832 q 578 774 600 799 q 501 731 549 743 q 462 726 481 726 q 414 735 436 726 q 366 784 374 751 q 363 799 363 791 q 386 850 363 825 q 463 893 414 881 m 465 414 q 537 386 507 414 q 567 317 567 357 q 537 250 567 278 q 465 222 507 222 q 392 250 422 222 q 362 317 362 278 q 392 386 362 357 q 465 414 422 414 "},"9":{"ha":930,"x_min":34,"x_max":897,"o":"m 604 1155 q 208 1013 373 1155 q 34 665 34 854 l 34 625 q 42 538 34 592 q 358 293 151 293 l 429 293 q 564 317 467 293 q 588 309 572 317 q 580 111 588 279 l 580 103 q 699 -24 617 -24 l 754 -24 q 793 -16 781 -24 q 897 198 897 21 l 897 941 q 778 1084 897 1029 q 604 1155 716 1155 m 342 641 q 366 704 351 704 q 556 839 366 786 q 572 823 572 839 q 398 602 572 643 q 342 641 353 602 "},"\u001d":{"ha":1268,"x_min":0,"x_max":0,"o":""},"\u0000":{"ha":0,"x_min":0,"x_max":0,"o":""}," ":{"ha":677,"x_min":0,"x_max":0,"o":""},"!":{"ha":578,"x_min":34,"x_max":545,"o":"m 266 404 l 265 404 q 161 319 216 404 q 34 266 35 307 l 34 264 q 100 146 34 215 q 74 78 87 120 q 68 46 68 60 q 79 12 68 26 q 130 -13 97 -12 l 131 -13 q 245 48 164 -13 q 370 -9 321 -8 q 372 -9 372 -9 q 427 33 419 -9 q 428 52 428 42 q 406 144 428 91 q 468 234 468 219 l 469 250 l 469 251 q 376 315 469 315 q 357 314 367 315 q 266 404 323 403 m 241 488 l 303 476 q 328 475 316 475 q 446 585 436 475 l 450 608 q 468 823 456 760 l 486 916 q 542 1114 540 1106 q 545 1139 545 1127 q 412 1277 545 1227 l 402 1277 q 237 1143 290 1277 q 170 946 181 1003 q 140 696 140 797 q 241 488 140 508 "},"\"":{"ha":732,"x_min":34,"x_max":699,"o":"m 524 1179 q 437 1147 485 1179 q 374 870 374 1105 l 382 815 q 532 617 382 617 l 588 625 q 690 783 690 667 l 690 941 l 699 1036 q 556 1179 699 1148 l 524 1179 m 176 1155 q 34 949 47 1155 l 34 870 q 169 649 46 649 l 224 649 q 351 791 351 688 l 351 815 q 342 926 351 876 q 351 1005 351 967 q 216 1155 326 1155 l 176 1155 "},"#":{"ha":1326,"x_min":34,"x_max":1292,"o":"m 888 1147 q 778 1076 848 1147 q 730 926 752 926 l 627 926 q 595 997 607 926 q 469 1139 595 1101 l 406 1139 q 295 1060 357 1139 q 264 918 287 935 q 34 768 34 878 l 34 704 q 169 585 34 616 l 232 585 q 256 562 256 573 l 256 498 q 216 475 256 475 q 42 332 42 461 l 42 301 l 50 245 q 264 159 104 159 q 414 -39 281 -39 l 461 -39 q 580 95 580 7 l 580 151 q 604 174 592 174 l 651 174 q 762 159 702 174 q 928 -24 801 -24 l 944 -24 q 1070 47 1013 -24 q 1110 135 1093 135 q 1205 269 1205 187 q 1141 404 1205 349 q 1031 467 1031 454 l 1031 554 q 1046 570 1031 568 l 1165 570 q 1292 728 1263 570 q 1213 863 1292 787 q 1063 902 1078 886 l 1070 941 l 1070 1021 q 944 1147 1025 1147 l 888 1147 m 654 597 q 716 579 690 597 q 742 537 742 562 q 716 495 742 512 q 654 477 690 477 q 592 495 618 477 q 567 537 567 512 q 592 579 567 562 q 654 597 618 597 "},"$":{"ha":1197,"x_min":34,"x_max":1163,"o":"m 432 1124 q 39 736 91 1036 q 34 688 34 711 q 111 527 34 600 q 316 420 208 435 q 791 340 745 370 q 553 269 791 298 l 498 269 q 363 293 467 269 l 332 293 q 190 142 218 293 q 432 -44 190 -22 l 432 -77 q 574 -186 446 -186 q 591 -187 583 -187 q 749 -91 728 -187 l 749 -15 q 1163 356 1163 89 q 807 665 1163 588 q 380 736 445 714 q 617 839 401 818 l 641 839 q 738 827 701 839 q 809 771 775 815 q 957 728 844 728 q 1076 846 1056 747 q 1082 892 1082 869 q 1068 958 1082 925 q 749 1147 972 1114 l 749 1176 q 584 1312 735 1307 q 432 1181 446 1307 l 432 1124 "},"%":{"ha":1033,"x_min":34,"x_max":999,"o":"m 169 958 q 34 823 62 949 l 34 791 q 176 649 34 680 q 342 799 342 668 q 200 958 323 958 l 169 958 m 841 958 q 437 641 734 958 q 42 127 111 302 l 42 64 q 193 -63 42 -31 q 366 64 297 -63 q 809 578 464 240 q 999 783 999 696 l 999 823 q 857 958 999 928 l 841 958 m 778 396 q 635 254 663 396 l 635 222 q 778 79 635 106 l 802 79 q 944 206 905 79 l 944 261 q 809 396 944 368 l 778 396 "},"&":{"ha":1175,"x_min":34,"x_max":1141,"o":"m 564 1202 q 461 1195 528 1202 q 34 799 34 1083 l 34 791 q 176 498 34 661 l 176 491 q 90 254 90 378 l 90 245 q 98 174 90 217 q 461 -71 205 -71 q 651 -39 621 -55 q 841 32 678 -39 l 849 32 q 968 -31 912 -31 l 1015 -31 q 1141 111 1141 7 q 1070 269 1141 199 q 880 467 985 467 l 841 467 q 699 356 755 467 q 469 245 699 277 q 414 261 437 245 q 453 317 414 285 q 667 498 667 378 l 667 522 q 604 641 667 582 q 358 783 362 735 q 366 815 358 801 q 556 886 458 886 l 588 886 l 635 878 q 754 791 720 791 l 833 791 q 944 934 944 835 l 944 949 q 936 1013 944 982 q 564 1202 844 1202 "},"'":{"ha":385,"x_min":34,"x_max":351,"o":"m 186 1203 q 34 1005 47 1195 l 34 751 q 176 585 47 585 q 193 585 184 585 q 351 730 330 585 l 351 997 q 186 1203 337 1195 "},"(":{"ha":590,"x_min":34,"x_max":556,"o":"m 406 1219 q 256 1124 309 1219 q 34 530 34 905 q 81 222 34 386 q 342 -31 201 -31 l 351 -31 q 493 95 454 -31 l 493 159 q 437 245 493 207 q 351 507 351 323 l 351 546 q 414 823 351 693 q 556 1053 556 983 q 406 1219 543 1219 "},")":{"ha":582,"x_min":34,"x_max":548,"o":"m 161 1219 q 34 1076 34 1179 q 113 926 34 975 q 240 641 224 762 q 169 380 240 573 q 58 190 58 210 l 58 127 q 200 0 58 39 q 334 64 279 0 q 548 641 548 332 q 453 981 548 795 q 216 1219 317 1219 l 161 1219 "},"*":{"ha":954,"x_min":34,"x_max":920,"o":"m 517 1100 q 366 934 395 1100 l 358 934 q 176 1013 258 1013 q 34 886 73 1013 l 34 831 q 129 704 34 779 q 90 578 90 597 q 105 507 90 543 q 264 420 149 420 l 334 420 q 493 285 381 285 q 604 332 556 285 q 659 388 644 388 l 690 380 q 857 538 857 404 q 802 665 857 587 q 920 831 920 743 q 793 981 888 981 l 730 981 l 690 973 q 517 1100 639 1100 "},"+":{"ha":875,"x_min":34,"x_max":841,"o":"m 500 878 q 334 704 355 878 q 216 665 334 665 q 34 522 34 644 l 34 491 q 176 349 34 376 q 279 356 181 349 l 303 340 q 295 261 295 271 q 429 95 311 95 l 485 95 l 524 103 q 612 293 612 157 l 612 349 q 635 372 624 372 l 730 372 q 841 507 841 414 l 841 554 q 659 688 841 656 q 500 878 642 878 "},",":{"ha":487,"x_min":34,"x_max":453,"o":"m 295 522 q 137 340 137 494 q 34 87 34 118 q 193 -71 34 -39 q 319 -7 273 -60 q 453 349 453 213 l 453 388 q 311 522 453 493 l 295 522 "},"-":{"ha":780,"x_min":34,"x_max":746,"o":"m 532 720 q 176 696 439 720 q 34 554 61 696 q 216 380 34 404 q 509 412 376 404 q 595 404 578 404 q 746 546 746 432 l 746 570 q 548 720 746 710 l 532 720 "},".":{"ha":503,"x_min":34,"x_max":469,"o":"m 266 404 l 265 404 q 161 319 216 404 q 34 266 35 307 l 34 264 q 100 146 34 215 q 74 78 87 120 q 68 46 68 60 q 79 12 68 26 q 130 -13 97 -12 l 131 -13 q 245 48 164 -13 q 370 -9 321 -8 q 372 -9 372 -9 q 427 33 419 -9 q 428 52 428 42 q 406 144 428 91 q 468 234 468 219 l 469 250 l 469 251 q 376 315 469 315 q 357 314 367 315 q 266 404 323 403 "},"/":{"ha":812,"x_min":34,"x_max":778,"o":"m 627 1084 q 541 1060 585 1084 q 279 696 460 991 q 34 222 45 315 l 34 206 q 161 64 34 102 l 208 64 q 327 135 264 64 q 659 704 446 373 q 778 926 778 855 q 627 1084 756 1084 "},":":{"ha":385,"x_min":34,"x_max":351,"o":"m 193 791 q 42 641 71 791 l 50 585 q 208 483 91 483 q 351 617 351 512 l 351 656 q 208 791 351 762 l 193 791 m 169 404 q 34 261 63 404 l 34 245 q 153 103 34 140 l 232 103 q 342 245 342 146 l 342 261 q 208 404 317 404 l 169 404 "},";":{"ha":479,"x_min":34,"x_max":446,"o":"m 264 783 q 121 665 165 783 l 121 585 q 264 475 165 475 l 279 475 q 422 593 385 475 l 422 649 q 279 783 422 754 l 264 783 m 279 404 q 129 261 173 404 q 34 87 34 113 l 34 47 q 184 -95 34 -72 q 248 -87 204 -95 q 446 222 446 90 l 446 254 q 279 404 446 390 "},"<":{"ha":836,"x_min":34,"x_max":802,"o":"m 612 949 q 34 585 34 784 q 541 198 34 402 l 604 198 q 722 332 694 198 l 722 380 q 635 498 722 430 q 517 570 517 560 l 524 585 q 802 799 802 655 q 675 949 769 949 l 612 949 "},"=":{"ha":748,"x_min":34,"x_max":714,"o":"m 477 1005 q 287 989 338 1005 q 34 823 34 970 l 34 807 q 153 665 34 702 l 208 665 l 446 696 q 509 688 476 688 l 572 688 q 690 807 690 730 l 690 870 q 477 1005 690 989 m 429 593 q 200 570 373 593 q 34 444 34 549 l 34 380 q 184 254 34 290 q 437 285 235 254 q 580 277 469 285 l 595 277 q 714 427 714 326 q 707 491 714 447 q 524 593 654 593 l 429 593 "},">":{"ha":772,"x_min":34,"x_max":738,"o":"m 153 989 q 34 870 54 970 l 34 807 q 90 712 34 769 q 248 625 248 635 l 248 609 q 74 404 74 497 l 74 380 q 200 245 116 245 l 248 245 q 477 388 306 245 q 738 656 738 538 q 659 807 738 751 q 208 989 248 989 l 153 989 "},"?":{"ha":1025,"x_min":34,"x_max":991,"o":"m 615 1356 q 220 1262 407 1356 q 34 1047 34 1169 l 34 1015 q 169 873 68 873 q 256 889 224 873 q 517 1047 399 1047 q 643 1000 599 1047 l 643 991 l 635 976 q 279 628 279 867 q 437 454 301 454 l 469 454 q 612 565 583 454 l 619 636 q 991 968 991 749 l 991 991 q 975 1086 991 1031 q 615 1356 823 1356 m 486 402 l 485 402 q 381 317 436 402 q 254 264 254 305 l 254 262 q 319 144 254 213 q 294 76 307 118 q 288 44 288 58 q 299 10 288 24 q 350 -15 317 -14 l 351 -15 q 465 46 384 -15 q 590 -11 541 -10 q 592 -12 591 -12 q 646 31 639 -12 q 648 50 648 40 q 625 142 648 89 q 688 232 688 217 l 688 248 l 688 249 q 596 313 688 313 q 577 312 587 313 q 486 402 543 401 "},"@":{"ha":1215,"x_min":34,"x_max":1181,"o":"m 675 1202 q 477 1163 605 1202 q 34 554 34 909 l 34 538 q 224 151 34 304 q 643 8 389 8 l 707 8 q 1181 206 1181 8 l 1181 222 q 1046 364 1141 364 q 683 317 764 317 q 556 332 601 317 q 342 530 342 397 q 374 649 342 562 q 667 886 524 886 l 699 886 q 865 791 865 848 q 722 680 865 722 q 619 712 646 712 q 461 562 461 684 q 699 364 461 392 l 707 364 q 817 380 758 364 q 1181 791 1181 503 q 1165 902 1181 842 q 675 1202 1010 1202 "},"A":{"ha":1192,"x_min":34,"x_max":1158,"o":"m 588 1013 q 295 720 449 1013 q 34 95 34 176 l 34 32 q 153 -87 54 -67 l 216 -87 q 334 32 315 -68 q 699 87 334 68 l 825 87 l 841 79 q 999 -71 893 -71 q 1158 71 1158 -50 l 1158 79 q 1086 427 1158 196 q 643 1013 867 1013 l 588 1013 m 427 379 q 597 677 503 546 q 767 397 724 541 q 710 397 738 397 q 427 379 559 397 "},"B":{"ha":1303,"x_min":34,"x_max":1270,"o":"m 566 1124 q 231 1059 385 1124 q 126 465 126 991 q 130 237 126 360 q 36 96 46 195 q 34 70 34 82 q 94 -59 34 -11 q 557 -142 161 -115 q 945 -71 752 -142 q 1270 312 1270 106 q 987 642 1270 517 q 1040 824 1040 743 q 961 995 1040 924 q 566 1124 818 1124 m 439 317 q 724 401 606 401 q 834 378 785 401 q 909 305 909 343 q 852 239 909 273 q 499 174 742 174 q 439 174 470 174 l 439 317 m 447 652 q 464 827 451 754 q 534 830 503 830 q 643 804 621 830 q 659 763 659 785 q 646 722 659 744 q 447 652 618 677 "},"C":{"ha":1065,"x_min":34,"x_max":1031,"o":"m 627 1092 q 358 1036 480 1092 q 34 515 34 856 q 66 325 34 437 q 493 -24 206 -24 l 541 -24 q 635 -16 594 -24 q 1031 254 1031 95 l 1031 277 q 888 420 1031 392 l 865 420 q 825 412 838 420 q 524 285 616 285 q 351 491 389 285 l 351 538 l 358 585 q 604 775 427 775 l 635 775 q 683 760 656 775 q 857 633 787 633 q 1023 775 1023 646 l 1023 823 q 627 1092 886 1092 "},"D":{"ha":1136,"x_min":34,"x_max":1102,"o":"m 390 1044 q 279 1029 339 1044 q 90 704 90 958 l 90 570 q 121 198 90 443 q 34 56 34 119 q 208 -111 34 -111 l 216 -111 q 1102 420 1102 -22 l 1102 475 q 1055 673 1102 572 q 390 1044 824 1044 m 414 728 l 453 728 q 793 444 793 646 q 453 245 793 319 l 446 245 q 398 633 406 302 l 398 704 l 414 728 "},"E":{"ha":1136,"x_min":34,"x_max":1077,"o":"m 729 1050 q 665 1053 697 1053 q 312 969 503 1053 q 81 649 81 867 q 137 451 81 542 q 34 222 34 340 q 42 127 34 170 q 357 -111 122 -95 q 429 -113 393 -113 q 846 -40 630 -113 q 1077 193 1077 38 q 1074 229 1077 210 q 937 384 1050 384 q 897 380 918 384 q 422 206 635 206 l 406 206 q 390 222 393 206 q 597 311 390 264 q 735 454 724 357 q 737 488 737 472 q 696 597 737 560 q 585 633 656 633 q 546 631 567 633 q 488 627 511 627 q 446 641 446 627 q 564 713 446 684 q 655 724 612 724 q 768 699 718 724 q 836 683 802 683 q 946 724 890 683 q 1001 823 1001 764 q 977 910 1001 862 q 729 1050 915 1029 "},"F":{"ha":890,"x_min":34,"x_max":857,"o":"m 517 1053 q 342 1036 442 1053 q 34 625 34 950 l 34 530 q 58 254 34 336 q 216 -79 80 -79 l 279 -79 q 398 40 378 -60 l 398 71 q 374 230 398 118 l 390 254 l 437 254 q 722 420 722 254 l 722 435 q 588 578 682 578 q 366 562 535 578 q 342 585 342 574 q 351 649 342 641 q 509 744 351 744 q 675 712 534 744 l 738 712 q 857 846 827 712 l 857 878 l 849 934 q 517 1053 769 1053 "},"G":{"ha":1223,"x_min":34,"x_max":1189,"o":"m 707 1044 q 422 989 555 1044 q 34 498 34 809 q 74 317 34 420 q 699 -63 311 -63 l 738 -63 q 904 -31 806 -63 q 1189 293 1189 130 l 1189 340 l 1181 388 q 778 609 1077 609 q 619 483 619 581 l 619 420 q 802 285 619 319 q 714 245 802 258 q 548 285 675 245 q 351 491 351 394 l 351 507 q 406 617 351 540 q 707 736 572 736 q 770 728 750 728 q 920 673 893 673 q 1078 815 1078 697 q 1063 902 1078 871 q 707 1044 973 1044 "},"H":{"ha":1208,"x_min":34,"x_max":1174,"o":"m 1031 1084 q 850 878 878 1084 l 817 649 q 625 661 730 661 q 433 652 536 661 q 470 854 438 721 l 470 878 q 335 1021 441 1021 q 290 1025 311 1025 q 186 981 221 1025 q 124 642 139 925 q 34 486 34 606 q 35 458 34 472 q 125 319 46 319 l 130 319 l 130 174 q 296 -39 130 -11 q 454 103 454 -20 l 454 119 q 430 340 430 272 q 616 351 521 351 q 812 340 711 351 q 832 92 812 192 q 992 -7 853 -7 q 1138 60 1117 -7 q 1151 161 1151 102 q 1147 234 1151 195 q 1135 444 1135 341 l 1135 498 q 1174 918 1135 656 l 1174 941 q 1031 1084 1174 1051 "},"I":{"ha":400,"x_min":34,"x_max":366,"o":"m 200 997 q 105 949 134 997 q 34 388 34 949 q 42 198 42 212 q 169 47 71 47 l 224 47 q 351 190 351 86 l 351 602 q 366 854 351 621 q 200 997 366 981 "},"J":{"ha":979,"x_min":34,"x_max":945,"o":"m 454 1005 q 296 863 296 983 l 296 831 q 478 688 296 709 l 625 688 q 644 514 644 589 q 634 419 644 460 q 532 294 610 319 q 488 286 510 286 q 376 332 431 286 q 201 444 273 444 l 178 444 q 35 293 64 444 q 34 274 34 283 q 148 93 34 188 q 463 -24 275 -14 l 518 -24 q 652 0 589 -24 q 945 515 945 120 q 922 863 945 709 q 732 1005 871 1005 l 454 1005 "},"K":{"ha":1041,"x_min":34,"x_max":1007,"o":"m 169 1107 q 34 989 83 1107 q 42 799 42 878 l 42 562 q 34 40 42 380 q 184 -79 77 -79 q 311 -16 270 -79 q 358 254 338 -16 l 398 245 q 809 87 765 87 q 960 230 960 116 l 960 261 q 865 396 960 334 q 580 522 608 494 l 580 530 q 635 578 580 538 q 1007 894 1007 811 l 1007 949 q 857 1084 1007 1057 l 802 1076 q 374 783 543 889 q 351 799 351 783 l 351 949 q 208 1107 321 1107 l 169 1107 "},"L":{"ha":804,"x_min":34,"x_max":770,"o":"m 216 1107 q 113 1060 165 1107 q 34 317 67 1060 l 34 214 q 50 119 34 174 q 327 -31 126 -31 q 580 0 378 -31 q 770 159 770 10 q 612 317 770 288 q 366 285 573 317 l 342 301 q 390 949 342 384 q 248 1107 363 1107 l 216 1107 "},"M":{"ha":1480,"x_min":34,"x_max":1446,"o":"m 1056 1100 q 1029 1101 1042 1101 q 820 965 897 1101 q 715 815 736 815 q 422 1084 547 1084 q 233 941 294 1084 q 51 206 138 636 q 34 108 34 151 q 58 20 34 56 q 178 -47 102 -47 q 375 222 324 -47 l 470 578 q 705 377 574 380 l 708 377 q 992 625 837 377 q 1134 160 1099 304 q 1301 16 1169 16 q 1432 106 1394 16 q 1446 189 1446 141 q 1411 364 1446 262 q 1056 1100 1215 1100 "},"N":{"ha":1133,"x_min":34,"x_max":1099,"o":"m 910 1106 q 775 1059 808 1106 q 718 884 718 1036 q 755 551 718 760 l 748 536 q 724 543 739 536 q 264 949 416 949 l 232 949 q 129 910 184 949 q 34 515 34 844 l 34 119 q 153 -24 34 14 l 232 -24 q 342 119 342 20 l 342 475 l 351 491 l 358 491 q 580 245 370 491 q 920 -7 769 -7 q 1099 273 1093 28 q 1099 347 1099 309 q 1071 792 1099 558 q 910 1106 1036 1068 "},"O":{"ha":1274,"x_min":34,"x_max":1240,"o":"m 637 1027 q 210 871 387 1027 q 34 492 34 714 q 210 114 34 271 q 637 -43 387 -43 q 1063 114 886 -43 q 1240 492 1240 271 q 1063 871 1240 714 q 637 1027 886 1027 m 633 708 q 800 645 731 708 q 869 494 869 583 q 800 343 869 406 q 633 280 731 280 q 465 343 534 280 q 396 494 396 406 q 465 645 396 583 q 633 708 534 708 "},"P":{"ha":1166,"x_min":34,"x_max":1132,"o":"m 572 1131 q 414 1116 455 1124 q 34 910 34 1074 l 34 886 q 153 751 70 751 l 232 751 l 271 760 q 264 498 264 614 q 287 174 264 388 q 461 -111 313 -111 l 477 -111 q 627 40 598 -111 q 604 317 627 61 q 649 314 625 314 q 966 408 787 314 q 1132 717 1132 496 q 1122 833 1132 771 q 621 1132 1074 1132 q 572 1131 597 1132 m 588 618 l 595 780 q 741 718 737 766 l 741 716 q 588 618 741 669 "},"Q":{"ha":1278,"x_min":34,"x_max":1244,"o":"m 633 708 q 800 645 731 708 q 869 494 869 583 q 800 343 869 406 q 633 280 731 280 q 465 343 534 280 q 396 494 396 406 q 465 645 396 583 q 633 708 534 708 m 878 0 q 1012 -93 945 -64 q 1050 -101 1029 -101 q 1171 -46 1103 -101 q 1244 68 1244 14 q 1240 96 1244 82 q 1140 196 1216 163 q 1240 492 1240 326 q 1063 871 1240 714 q 637 1027 886 1027 q 210 871 387 1027 q 34 492 34 714 q 210 114 34 271 q 637 -43 387 -43 q 878 0 768 -43 "},"R":{"ha":1217,"x_min":34,"x_max":1183,"o":"m 588 1107 l 429 1107 q 34 886 34 1076 q 93 750 34 772 q 224 728 153 728 l 252 729 q 224 420 232 620 q 264 24 232 227 q 430 -87 314 -87 q 446 -87 438 -87 q 589 39 584 -81 q 583 127 589 81 q 576 263 576 173 q 994 22 720 62 q 1181 173 1152 46 q 1183 192 1183 182 q 852 416 1183 308 q 1102 720 1102 571 q 1086 823 1102 777 q 588 1107 975 1107 m 588 614 l 594 751 q 717 699 714 739 l 717 697 q 588 614 717 657 "},"S":{"ha":1197,"x_min":34,"x_max":1163,"o":"m 625 1155 q 39 736 104 1112 q 34 688 34 711 q 111 527 34 600 q 316 420 208 435 q 791 340 745 370 q 553 269 791 298 l 498 269 q 363 293 467 269 l 332 293 q 190 142 218 293 q 514 -47 190 -47 q 633 -39 564 -47 q 1163 356 1163 54 q 807 665 1163 588 q 380 736 445 714 q 617 839 401 818 l 641 839 q 738 827 701 839 q 809 771 775 815 q 957 728 844 728 q 1076 846 1056 747 q 1082 892 1082 869 q 1068 958 1082 925 q 625 1155 948 1155 "},"T":{"ha":883,"x_min":34,"x_max":849,"o":"m 493 1116 q 34 902 34 1079 q 176 728 34 757 l 193 728 q 296 760 216 728 q 287 481 287 660 q 290 261 287 383 q 448 16 290 16 q 606 142 565 16 q 612 783 612 732 q 627 799 612 797 l 690 799 q 849 944 849 812 l 849 961 q 553 1117 849 1117 q 493 1116 525 1117 "},"U":{"ha":1207,"x_min":34,"x_max":1173,"o":"m 240 1084 q 34 538 68 1084 l 34 491 q 58 285 34 362 q 422 -7 164 -7 l 446 -7 q 841 182 623 -7 q 865 111 865 182 q 1007 -16 909 -16 l 1031 -16 q 1173 103 1127 -16 q 1126 823 1126 747 q 975 1076 1126 1076 q 825 997 876 1076 q 659 467 762 609 q 429 309 552 309 q 342 498 342 309 q 351 602 342 574 q 422 918 351 691 l 422 941 q 287 1084 393 1084 l 240 1084 "},"V":{"ha":1183,"x_min":34,"x_max":1149,"o":"m 999 1053 q 817 910 886 1053 q 635 498 651 513 l 627 498 l 422 815 q 193 1036 321 1036 q 34 878 60 1036 l 42 831 l 382 285 q 651 0 507 0 l 699 8 q 999 538 815 8 q 1149 886 1149 848 q 999 1053 1136 1053 "},"W":{"ha":1397,"x_min":34,"x_max":1363,"o":"m 169 1060 q 34 934 75 1060 q 145 546 34 835 q 429 24 254 24 l 461 24 q 588 103 527 24 q 690 293 679 293 l 699 293 l 746 254 q 983 56 881 56 q 1078 87 1057 56 q 1363 863 1173 87 l 1363 902 q 1221 1044 1322 1044 l 1165 1044 q 1063 973 1119 1044 q 944 530 1063 951 q 920 538 935 530 q 659 736 755 736 q 469 593 538 736 l 461 593 q 366 863 395 796 q 208 1060 328 1060 l 169 1060 "},"X":{"ha":1025,"x_min":34,"x_max":991,"o":"m 825 1084 q 675 997 758 1084 q 469 783 482 783 l 437 791 q 200 1036 304 1036 l 176 1036 q 34 894 61 1036 q 42 823 34 865 l 256 507 q 248 483 256 483 q 42 111 42 141 l 42 56 q 208 -79 42 -63 q 334 -16 271 -79 q 461 222 433 185 q 532 159 488 222 q 730 -55 625 -55 l 754 -55 q 897 71 857 -55 l 897 95 q 865 222 897 151 l 675 498 q 802 680 675 536 q 991 926 991 839 q 841 1084 970 1084 l 825 1084 "},"Y":{"ha":1088,"x_min":34,"x_max":1055,"o":"m 888 1155 q 762 1084 827 1155 q 493 783 512 785 q 422 854 472 783 q 200 1076 311 1076 l 176 1076 q 34 934 61 1076 l 34 910 q 311 483 34 839 q 271 32 279 290 q 422 -119 307 -119 q 580 -7 528 -119 q 627 459 595 338 q 944 815 703 535 q 1055 989 1055 924 l 1055 1013 q 912 1155 1055 1128 l 888 1155 "},"Z":{"ha":1160,"x_min":34,"x_max":1126,"o":"m 619 1124 q 446 1107 562 1124 q 105 894 105 1048 q 256 736 130 736 q 509 799 299 736 l 517 783 l 517 775 q 34 261 34 422 q 264 56 34 73 q 635 71 477 71 q 975 16 752 71 l 991 16 q 1126 142 1126 59 l 1126 190 q 1055 309 1126 255 q 580 388 857 388 q 556 404 556 388 q 793 585 576 435 q 1046 894 1046 741 l 1046 902 q 651 1124 993 1124 l 619 1124 "},"[":{"ha":677,"x_min":34,"x_max":643,"o":"m 358 1171 q 169 1107 242 1171 q 34 570 34 1016 l 34 427 q 342 -31 34 -31 l 390 -31 q 556 119 556 -18 q 548 182 556 138 q 390 277 503 277 q 342 491 342 277 l 342 530 q 398 863 342 851 l 446 854 l 517 854 q 643 997 643 893 l 643 1021 q 627 1092 643 1040 q 374 1171 583 1171 l 358 1171 "},"\\":{"ha":732,"x_min":34,"x_max":699,"o":"m 184 1147 q 34 997 61 1147 q 248 404 104 699 q 524 0 395 0 l 556 0 q 699 151 670 0 l 690 198 q 398 854 564 448 q 200 1147 340 1147 l 184 1147 "},"]":{"ha":661,"x_min":34,"x_max":627,"o":"m 169 1179 q 34 1036 63 1179 l 34 997 q 208 870 70 870 l 295 870 l 319 854 q 303 538 319 779 q 232 301 289 301 q 42 142 42 278 q 184 -16 60 -16 l 216 -16 q 532 142 407 -16 q 627 815 607 195 q 604 1021 627 943 q 311 1179 541 1179 l 169 1179 "},"^":{"ha":954,"x_min":34,"x_max":920,"o":"m 453 1163 q 311 1084 389 1163 q 34 688 34 733 l 34 625 q 184 498 34 531 l 264 515 q 469 775 322 559 q 548 712 494 775 q 762 530 675 530 q 920 656 920 555 l 920 704 q 738 965 920 774 q 509 1163 602 1163 l 453 1163 "},"_":{"ha":1128,"x_min":34,"x_max":1094,"o":"m 754 301 q 232 245 554 301 q 34 95 34 228 q 176 -71 50 -71 l 193 -71 q 762 -7 661 -7 l 944 -31 q 1094 103 1094 -6 l 1094 182 q 778 301 1042 301 l 754 301 "},"a":{"ha":1351,"x_min":34,"x_max":1317,"o":"m 755 1213 q 713 1217 733 1217 q 564 1124 625 1217 q 437 910 490 979 q 176 918 388 910 q 34 768 34 879 l 34 720 l 50 665 q 224 467 223 492 l 145 174 l 145 111 q 264 -7 164 12 l 327 -7 q 358 0 345 -7 l 675 198 q 1046 -24 960 -24 l 1078 -24 q 1221 119 1192 -24 l 1221 174 q 1134 498 1221 227 l 1141 515 q 1308 720 1308 628 q 1317 771 1317 747 q 1024 903 1317 903 q 991 902 1008 903 q 755 1213 871 1187 "},"i":{"ha":511,"x_min":34,"x_max":477,"o":"m 271 1219 q 169 1131 222 1219 q 42 1076 42 1118 q 111 958 42 1027 q 86 889 98 931 q 81 858 81 872 q 92 823 81 837 q 143 799 110 799 q 257 863 176 799 q 383 807 334 807 q 439 850 432 807 q 440 867 440 859 q 416 962 440 907 q 477 1053 477 1038 l 477 1068 q 388 1131 477 1131 q 364 1131 376 1131 q 271 1219 328 1219 m 193 704 q 34 269 34 704 q 61 63 34 211 q 208 -102 89 -85 q 366 32 366 -77 q 351 237 366 40 l 351 332 q 374 546 351 396 l 374 570 q 376 591 376 581 q 256 704 376 692 l 193 704 "},"o":{"ha":1274,"x_min":34,"x_max":1240,"o":"m 472 656 q 621 800 559 800 q 765 665 688 800 q 907 570 907 648 q 844 451 880 485 l 884 325 l 884 317 q 821 245 884 266 q 631 340 767 245 q 441 245 455 245 q 361 309 383 245 q 393 435 361 318 q 314 554 314 505 q 310 585 310 570 q 427 659 310 659 q 472 656 448 659 m 637 1027 q 210 871 387 1027 q 34 492 34 714 q 210 114 34 271 q 637 -43 387 -43 q 1063 114 886 -43 q 1240 492 1240 271 q 1063 871 1240 714 q 637 1027 886 1027 "},"|":{"ha":432,"x_min":34,"x_max":398,"o":"m 216 1124 q 90 1036 152 1124 q 34 491 34 711 l 34 444 q 58 119 34 294 q 216 16 99 16 q 358 135 315 16 q 342 475 358 220 q 398 941 342 684 l 398 949 q 256 1124 376 1124 l 216 1124 "},"~":{"ha":1057,"x_min":34,"x_max":1023,"o":"m 406 846 q 271 823 348 846 q 34 515 34 633 l 34 491 q 176 349 34 376 l 200 349 q 287 380 245 349 q 398 515 386 515 l 414 507 q 683 301 574 301 l 754 301 q 833 325 793 301 q 1023 641 1023 437 l 1023 665 q 873 807 1023 781 q 762 768 819 807 l 699 665 l 690 665 q 429 846 576 846 l 406 846 "},"¢":{"ha":812,"x_min":34,"x_max":778,"o":"m 437 1021 q 287 854 316 1021 q 34 498 34 712 q 271 174 34 290 q 429 -31 271 -31 q 564 32 509 -31 q 612 127 593 127 q 746 261 746 184 l 746 317 q 604 444 707 444 l 469 444 q 358 515 370 444 q 524 585 420 585 q 595 570 576 570 l 643 570 q 778 712 746 570 q 707 854 778 794 q 604 902 604 891 q 437 1021 561 1021 "},"£":{"ha":1097,"x_min":34,"x_max":1063,"o":"m 683 1147 q 311 910 452 1147 q 232 712 252 712 l 161 712 q 34 570 34 673 q 113 427 34 458 l 216 388 l 208 340 q 153 127 153 165 l 153 111 q 327 -39 153 -16 q 912 -7 465 -39 q 1063 127 1063 12 l 1063 182 q 928 301 1016 301 q 532 277 756 301 q 524 285 532 285 q 556 412 524 412 l 707 412 q 825 562 825 463 q 675 720 801 720 l 612 720 l 588 736 l 588 744 q 683 831 618 831 l 730 831 q 857 751 823 751 l 920 751 q 1039 870 1019 771 l 1039 949 q 683 1147 961 1147 "},"‘":{"ha":487,"x_min":34,"x_max":453,"o":"m 193 609 q 351 791 351 637 q 453 1044 453 1013 q 295 1202 453 1171 q 169 1139 214 1191 q 34 783 34 918 l 34 744 q 176 609 34 638 l 193 609 "},"’":{"ha":487,"x_min":34,"x_max":453,"o":"m 295 1202 q 137 1021 137 1174 q 34 768 34 798 q 192 609 34 641 q 319 673 273 621 q 453 1029 453 893 l 453 1068 q 311 1202 453 1173 l 295 1202 "},"“":{"ha":1074,"x_min":34,"x_max":1040,"o":"m 193 609 q 351 791 351 637 q 453 1044 453 1013 q 295 1202 453 1171 q 169 1139 214 1191 q 34 783 34 918 l 34 744 q 176 609 34 638 l 193 609 m 779 609 q 937 791 937 637 q 1040 1044 1040 1013 q 882 1202 1040 1171 q 755 1139 801 1191 q 621 783 621 918 l 621 744 q 763 609 621 638 l 779 609 "},"”":{"ha":1074,"x_min":34,"x_max":1040,"o":"m 295 1202 q 137 1021 137 1174 q 34 768 34 798 q 192 609 34 641 q 319 673 273 621 q 453 1029 453 893 l 453 1068 q 311 1202 453 1173 l 295 1202 m 882 1202 q 724 1021 724 1174 q 621 768 621 798 q 779 609 621 641 q 905 673 860 621 q 1040 1029 1040 893 l 1040 1068 q 897 1202 1040 1173 l 882 1202 "},"…":{"ha":1250,"x_min":34,"x_max":1216,"o":"m 260 389 q 192 409 226 409 q 66 337 128 409 l 54 316 q 34 248 34 282 q 106 122 34 184 l 126 110 q 195 90 161 90 q 321 162 259 90 l 333 182 q 353 251 353 217 q 281 377 353 315 l 260 389 m 692 389 q 624 409 657 409 q 497 337 559 409 l 486 316 q 465 248 465 282 q 537 122 465 184 l 557 110 q 626 90 592 90 q 752 162 690 90 l 764 182 q 784 251 784 217 q 712 377 784 315 l 692 389 m 1123 389 q 1055 409 1088 409 q 929 337 991 409 l 917 316 q 897 248 897 281 q 968 122 897 184 l 989 110 q 1057 90 1024 90 q 1184 162 1122 90 l 1196 182 q 1216 251 1216 217 q 1143 377 1216 315 l 1123 389 "},"€":{"ha":1215,"x_min":34,"x_max":1181,"o":"m 778 1100 q 524 1036 675 1100 q 200 680 298 913 q 34 515 34 623 q 98 380 34 441 q 176 285 176 357 q 690 -39 332 -39 l 817 -31 q 1181 230 1181 66 q 1031 396 1158 396 q 968 388 987 388 q 722 277 840 277 l 683 277 q 493 364 553 277 q 580 380 493 380 q 699 530 699 428 q 595 688 699 629 q 809 791 595 749 q 904 768 884 768 l 928 768 q 1070 894 1031 768 l 1070 958 q 865 1100 1013 1100 l 778 1100 "},"™":{"ha":487,"x_min":34,"x_max":453,"o":"m 256 751 q 208 744 208 751 q 34 585 76 730 l 34 522 l 42 475 q 256 356 102 356 l 287 356 q 327 364 313 356 q 453 538 453 427 q 256 751 428 751 "}}}
